<svg xmlns="http://www.w3.org/2000/svg" width="660" height="556" viewBox="0 0 660 556" preserveAspectRatio="xMidYMid meet">

<defs><marker id="arrow-000000" markerWidth="9" markerHeight="8" refX="9" refY="4" orient="auto" markerUnits="userSpaceOnUse"><path d="M0,0 L9,4 L0,8 Z" fill="#000000"/></marker><marker id="arrow-6f56c9" markerWidth="9" markerHeight="8" refX="9" refY="4" orient="auto" markerUnits="userSpaceOnUse"><path d="M0,0 L9,4 L0,8 Z" fill="#6f56c9"/></marker><marker id="arrow-ba743b" markerWidth="9" markerHeight="8" refX="9" refY="4" orient="auto" markerUnits="userSpaceOnUse"><path d="M0,0 L9,4 L0,8 Z" fill="#ba743b"/></marker><marker id="arrow-4c7fa5" markerWidth="9" markerHeight="8" refX="9" refY="4" orient="auto" markerUnits="userSpaceOnUse"><path d="M0,0 L9,4 L0,8 Z" fill="#4c7fa5"/></marker><marker id="arrow-648259" markerWidth="9" markerHeight="8" refX="9" refY="4" orient="auto" markerUnits="userSpaceOnUse"><path d="M0,0 L9,4 L0,8 Z" fill="#648259"/></marker><marker id="arrow-777777" markerWidth="9" markerHeight="8" refX="9" refY="4" orient="auto" markerUnits="userSpaceOnUse"><path d="M0,0 L9,4 L0,8 Z" fill="#777777"/></marker></defs>
<rect width="660" height="556" fill="white"/>
<g font-family="Helvetica, Arial, sans-serif"><g data-relation="cluster" data-from="r" data-to="l"><path d="M322.589710405898,57.18252329064824L197.410289594102,130.81747670935175" fill="none" stroke="#777777" stroke-width="1.6"  marker-end="url(#arrow-777777)"/></g><g data-relation="cluster" data-from="r" data-to="k"><path d="M366.403532433798,58.76105685089515L468.596467566202,129.23894314910484" fill="none" stroke="#777777" stroke-width="1.6"  marker-end="url(#arrow-777777)"/></g><g data-relation="cluster" data-from="l" data-to="a"><path d="M164.28151694996123,167.6878475405857L85.71848305003877,341.31215245941434" fill="none" stroke="#777777" stroke-width="1.6"  marker-end="url(#arrow-777777)"/></g><g data-relation="cluster" data-from="l" data-to="q"><path d="M195.44953204974618,160.05666960943034L289.55046795025385,233.94333039056966" fill="none" stroke="#777777" stroke-width="1.6"  marker-end="url(#arrow-777777)"/></g><g data-relation="cluster" data-from="q" data-to="c"><path d="M297.20651132663454,272.6346338067235L257.79348867336546,342.3653661932765" fill="none" stroke="#777777" stroke-width="1.6"  marker-end="url(#arrow-777777)"/></g><g data-relation="cluster" data-from="q" data-to="b"><path d="M326.55891762190356,270.04500554230435L388.44108237809644,344.95499445769565" fill="none" stroke="#777777" stroke-width="1.6"  marker-end="url(#arrow-777777)"/></g><g data-relation="cluster" data-from="k" data-to="b"><path d="M480.6665439379694,168.26698576127956L414.3334560620306,340.73301423872044" fill="none" stroke="#777777" stroke-width="1.6"  marker-end="url(#arrow-777777)"/></g><g data-relation="cluster" data-from="k" data-to="d"><path d="M498.35548897505055,168.62084084648225L556.6445110249495,340.3791591535178" fill="none" stroke="#777777" stroke-width="1.6"  marker-end="url(#arrow-777777)"/></g><g data-relation="compressed" data-from="a" data-to="q"><path data-weight="1" d="M98.35363477324219,353.5716255364985Q192.5,287.5 286.6463652267578,261.4283744635015" fill="none" stroke="#6f56c9" stroke-width="1.8" stroke-dasharray="6 4" marker-end="url(#arrow-6f56c9)"/><text x="192.5" y="277.5" text-anchor="middle" font-size="14" fill="#6f56c9" stroke="white" stroke-width="3" paint-order="stroke">1</text></g><g data-relation="compressed" data-from="b" data-to="d"><path data-weight="2" d="M431,365L539,365" fill="none" stroke="#6f56c9" stroke-width="1.8" stroke-dasharray="6 4" marker-end="url(#arrow-6f56c9)"/><text x="485" y="355" text-anchor="middle" font-size="14" fill="#6f56c9" stroke="white" stroke-width="3" paint-order="stroke">2</text></g><g transform="translate(345 44) scale(1.3)"><g data-node="r" data-shape="circle" data-color-mode="neutral"><path d="M-20,0A20,20 0 1 0 20,0A20,20 0 1 0 -20,0Z" fill="white" stroke="black" stroke-width="1.2"/><path d="M-20,0A20,20 0 1 0 20,0A20,20 0 1 0 -20,0Z" fill="none" stroke="black" stroke-width="1.2"/></g></g><g transform="translate(175 144) scale(1.3)"><g data-node="l" data-shape="circle" data-color-mode="neutral"><path d="M-20,0A20,20 0 1 0 20,0A20,20 0 1 0 -20,0Z" fill="white" stroke="black" stroke-width="1.2"/><path d="M-20,0A20,20 0 1 0 20,0A20,20 0 1 0 -20,0Z" fill="none" stroke="black" stroke-width="1.2"/></g></g><g transform="translate(310 250) scale(1.3)"><g data-node="q" data-shape="circle" data-color-mode="neutral"><path d="M-20,0A20,20 0 1 0 20,0A20,20 0 1 0 -20,0Z" fill="white" stroke="black" stroke-width="1.2"/><path d="M-20,0A20,20 0 1 0 20,0A20,20 0 1 0 -20,0Z" fill="none" stroke="black" stroke-width="1.2"/><text x="0" y="4" text-anchor="middle" font-size="12" fill="black">{c, b}</text></g></g><g transform="translate(490 144) scale(1.3)"><g data-node="k" data-shape="circle" data-color-mode="neutral"><path d="M-20,0A20,20 0 1 0 20,0A20,20 0 1 0 -20,0Z" fill="white" stroke="black" stroke-width="1.2"/><path d="M-20,0A20,20 0 1 0 20,0A20,20 0 1 0 -20,0Z" fill="none" stroke="black" stroke-width="1.2"/></g></g><g transform="translate(75 365) scale(1.3)"><g data-node="a" data-shape="circle" data-color-mode="neutral"><path d="M-20,0A20,20 0 1 0 20,0A20,20 0 1 0 -20,0Z" fill="white" stroke="black" stroke-width="1.2"/><path d="M-20,0A20,20 0 1 0 20,0A20,20 0 1 0 -20,0Z" fill="none" stroke="black" stroke-width="1.2"/><text x="0" y="5" text-anchor="middle" font-size="15" fill="black">a</text></g></g><g transform="translate(405 365) scale(1.3)"><g data-node="b" data-shape="circle" data-color-mode="neutral"><path d="M-20,0A20,20 0 1 0 20,0A20,20 0 1 0 -20,0Z" fill="white" stroke="black" stroke-width="1.2"/><path d="M-20,0A20,20 0 1 0 20,0A20,20 0 1 0 -20,0Z" fill="none" stroke="black" stroke-width="1.2"/><text x="0" y="5" text-anchor="middle" font-size="15" fill="black">b</text></g></g><g transform="translate(245 365) scale(1.3)"><g data-node="c" data-shape="circle" data-color-mode="neutral"><path d="M-20,0A20,20 0 1 0 20,0A20,20 0 1 0 -20,0Z" fill="white" stroke="black" stroke-width="1.2"/><path d="M-20,0A20,20 0 1 0 20,0A20,20 0 1 0 -20,0Z" fill="none" stroke="black" stroke-width="1.2"/><text x="0" y="5" text-anchor="middle" font-size="15" fill="black">c</text></g></g><g transform="translate(565 365) scale(1.3)"><g data-node="d" data-shape="circle" data-color-mode="neutral"><path d="M-20,0A20,20 0 1 0 20,0A20,20 0 1 0 -20,0Z" fill="white" stroke="black" stroke-width="1.2"/><path d="M-20,0A20,20 0 1 0 20,0A20,20 0 1 0 -20,0Z" fill="none" stroke="black" stroke-width="1.2"/><text x="0" y="5" text-anchor="middle" font-size="15" fill="black">d</text></g></g><g data-panel="edge-key"><path d="M28,413H632" stroke="#dddddd"/><path d="M28,435L70,435" fill="none" stroke="#6f56c9" stroke-width="1.8" stroke-dasharray="6 4" marker-end="url(#arrow-6f56c9)"/><text x="82" y="441" text-anchor="start" font-size="18" fill="#6f56c9" stroke="white" stroke-width="3" paint-order="stroke">Compressed edge of weight w in E′</text><text x="28" y="476" text-anchor="start" font-size="15" fill="#555555">Weight</text><text x="104" y="476" text-anchor="start" font-size="17" fill="#000000">Edges in G</text><g data-weight-explanation="1"><text x="51" y="506" text-anchor="middle" font-size="19" fill="#6f56c9" stroke="white" stroke-width="3" paint-order="stroke">1</text><text x="104" y="506" text-anchor="start" font-size="19" fill="#000000">{a} × {c, b}</text><text x="254" y="506" text-anchor="middle" font-size="19" fill="#000000">=</text><text x="282" y="506" text-anchor="start" font-size="19" fill="#000000">{(a, c), (a, b)}</text></g><g data-weight-explanation="2"><text x="51" y="536" text-anchor="middle" font-size="19" fill="#6f56c9" stroke="white" stroke-width="3" paint-order="stroke">2</text><text x="104" y="536" text-anchor="start" font-size="19" fill="#000000">{b} × {d}</text><text x="254" y="536" text-anchor="middle" font-size="19" fill="#000000">=</text><text x="282" y="536" text-anchor="start" font-size="19" fill="#000000">{(b, d)}</text></g></g></g></svg>
